<?xml version="1.0" encoding="utf-8"?>
<!-- Generator: Adobe Illustrator 23.0.3, SVG Export Plug-In . SVG Version: 6.00 Build 0)  -->
<svg version="1.1" id="Layer_1" xmlns="http://www.w3.org/2000/svg" xmlns:xlink="http://www.w3.org/1999/xlink" x="0px" y="0px"
	 viewBox="0 0 240.1 240.1" style="enable-background:new 0 0 240.1 240.1;" xml:space="preserve">
<style type="text/css">
	.st0{fill:#4E40B2;}
	.st1{fill:#7D58FF;}
</style>
<g>
	<path class="st0" d="M226.3,128.2c-9.2-22.7-31.4-36.4-54.7-36.2c14.7-15.5,20-37.9,11.8-58.1c-11.5-28.2-45-41.5-74.9-29.6
		l-20.7,8.2c29.9-11.9,63.4,1.3,74.9,29.6c5.9,14.5,4.8,30.2-1.7,43.6c6.5-13.4,7.6-29.1,1.7-43.6c-11.5-28.2-45-41.5-74.9-29.6
		L24.5,37.9C12.3,42.7,6.3,56.5,11.3,68.6L75,225.3c4.9,12.1,18.8,18,31,13.1l67.4-26.8l20.7-8.2
		C223.9,191.4,238.4,157.8,226.3,128.2z M194.8,119.3c0.1,0.1,0.2,0.2,0.2,0.3C195,119.5,194.9,119.4,194.8,119.3z M151,100.3
		C151,100.3,151,100.3,151,100.3c15.4-0.2,30.3,5.8,41.3,16.3C181.2,106.1,166.4,100.1,151,100.3z"/>
	<path class="st1" d="M151,100.3c14.7-15.5,20-37.9,11.8-58.1c-11.5-28.2-45-41.5-74.9-29.6L24.5,37.9C12.3,42.7,6.3,56.5,11.3,68.6
		L75,225.3c4.9,12.1,18.8,18,31,13.1l67.4-26.8c29.9-11.9,44.3-45.5,32.3-75.1C196.5,113.8,174.3,100.1,151,100.3z"/>
</g>
</svg>
